<?xml version="1.0" encoding="utf-8"?>
<!-- Generator: Adobe Illustrator 19.2.1, SVG Export Plug-In . SVG Version: 6.00 Build 0)  -->
<svg version="1.1" id="YT" xmlns="http://www.w3.org/2000/svg" xmlns:xlink="http://www.w3.org/1999/xlink" x="0px" y="0px"
	 viewBox="0 0 40 40" style="enable-background:new 0 0 40 40;" xml:space="preserve">
<style type="text/css">
	.st0{fill:#BB650E;}
</style>
<path id="i" class="st0" d="M15.5,9.4c0.4,0.4,0.6,0.9,0.6,1.5c0,0.6-0.2,1.1-0.6,1.5c-0.9,0.8-2.2,0.8-3.1,0
	c-0.4-0.4-0.6-0.9-0.6-1.5c0-0.6,0.2-1.1,0.6-1.5C13.3,8.6,14.6,8.6,15.5,9.4z M17.4,14.2h3.5v0.5c0.7-0.3,1.5-0.5,2.3-0.4
	c0.8,0,1.5,0.2,2.2,0.5c0.7,0.4,1.3,1,1.7,1.7c0.4,0.7,0.6,1.4,0.7,2.2v7.1h-3.5v-7.1c0-0.2-0.1-0.4-0.2-0.6
	c-0.1-0.2-0.3-0.3-0.4-0.4c-0.3-0.2-0.7-0.2-1-0.2c-0.3,0-0.6,0.1-0.9,0.2c-0.3,0.1-0.6,0.3-0.9,0.6v7.5h-3.5V14.2z M15.7,25.8h-3.5
	V14.2h3.5V25.8z"/>
</svg>
